<?xml version="1.0" encoding="utf-8"?>
<!-- Generator: Adobe Illustrator 19.2.0, SVG Export Plug-In . SVG Version: 6.00 Build 0)  -->
<svg version="1.1" id="Ebene_1" xmlns="http://www.w3.org/2000/svg" xmlns:xlink="http://www.w3.org/1999/xlink" x="0px" y="0px"
	 width="81px" height="163.2px" viewBox="0 0 81 163.2" style="enable-background:new 0 0 81 163.2;" xml:space="preserve">
<style type="text/css">
	.st0{fill:#005A88;}
</style>
<g>
	<path class="st0" d="M81,54.5H40.7c-0.2,0-0.5-0.2-0.5-0.5s0.2-0.5,0.5-0.5H81V54.5z"/>
	<path class="st0" d="M0.1,101.7L8.4,90c0.1-0.1,0.2-0.2,0.3-0.2c0.1,0,0.3,0,0.4,0.1l10.3,10.6c0.2,0.2,0.2,0.5,0,0.6
		c-0.2,0.2-0.5,0.2-0.6,0l-9.4-9.7c0.3,39.1,32.4,70.7,71.7,70.7v0.9c-39.8,0-72.2-32.1-72.6-71.7l-7.6,10.7
		c-0.1,0.2-0.4,0.3-0.6,0.1C0,102.2-0.1,102,0.1,101.7z"/>
	<path class="st0" d="M81,0.9c-10.3,0-18.7,8.4-18.7,18.7S70.7,38.2,81,38.2v0.9c-10.8,0-19.6-8.8-19.6-19.6C61.4,8.8,70.2,0,81,0
		V0.9z"/>
</g>
</svg>
