<?xml version="1.0" encoding="utf-8"?>
<!-- Generator: Adobe Illustrator 19.2.0, SVG Export Plug-In . SVG Version: 6.00 Build 0)  -->
<svg version="1.1" id="Ebene_1" xmlns="http://www.w3.org/2000/svg" xmlns:xlink="http://www.w3.org/1999/xlink" x="0px" y="0px"
	 width="81px" height="163.2px" viewBox="0 0 81 163.2" style="enable-background:new 0 0 81 163.2;" xml:space="preserve">
<style type="text/css">
	.st0{fill:#FFFFFF;}
</style>
<g>
	<path class="st0" d="M0.1,53.5h40.3c0.3,0,0.5,0.2,0.5,0.5s-0.3,0.5-0.5,0.5H0.1V53.5z"/>
	<path class="st0" d="M80.8,102.1c-0.2,0.2-0.5,0.1-0.6-0.1l-7.6-10.7C72.2,130.9,39.8,163,0,163v-0.9c39.3,0,71.4-31.6,71.7-70.7
		l-9.4,9.7c-0.1,0.2-0.4,0.2-0.6,0c-0.2-0.1-0.2-0.4,0-0.6L72,89.9c0.1-0.1,0.3-0.1,0.4-0.1c0.1,0,0.2,0.1,0.3,0.2l8.3,11.7
		C81.2,102,81.1,102.2,80.8,102.1z"/>
	<path class="st0" d="M0.1,0c10.8,0,19.6,8.8,19.6,19.5c0,10.8-8.8,19.6-19.6,19.6v-0.9c10.3,0,18.7-8.3,18.7-18.6S10.4,0.9,0.1,0.9
		V0z"/>
</g>
</svg>
