<?xml version="1.0" encoding="utf-8"?>
<!-- Generator: Adobe Illustrator 19.2.0, SVG Export Plug-In . SVG Version: 6.00 Build 0)  -->
<svg version="1.1" id="Ebene_1" xmlns="http://www.w3.org/2000/svg" xmlns:xlink="http://www.w3.org/1999/xlink" x="0px" y="0px"
	 width="81px" height="159px" viewBox="0 0 81 159" style="enable-background:new 0 0 81 159;" xml:space="preserve">
<style type="text/css">
	.st0{fill:#FFFFFF;}
</style>
<path class="st0" d="M40.8,53.9c0-0.3-0.2-0.5-0.5-0.5H0l0,1h40.3C40.5,54.4,40.8,54.2,40.8,53.9z"/>
<path class="st0" d="M19,159.4h3.1c29-9.3,50.1-36.3,50.4-68.2l7.6,10.7c0.1,0.2,0.4,0.3,0.6,0.1c0.3,0.1,0.4-0.1,0.2-0.4l-8.3-11.7
	c-0.1-0.1-0.2-0.2-0.3-0.2c-0.1,0-0.3,0-0.4,0.1l-10.3,10.6c-0.2,0.2-0.2,0.5,0,0.6c0.2,0.2,0.5,0.2,0.6,0l9.4-9.7
	C71.4,123.9,49.1,151.2,19,159.4z"/>
<path class="st0" d="M19.6,19.4C19.6,8.7,10.8-0.1,0-0.1v0.9c10.3,0,18.7,8.4,18.7,18.7S10.3,38.1,0,38.1V39
	C10.8,39,19.6,30.2,19.6,19.4z"/>
</svg>
