<?xml version="1.0" encoding="utf-8"?>
<!-- Generator: Adobe Illustrator 19.2.0, SVG Export Plug-In . SVG Version: 6.00 Build 0)  -->
<svg version="1.1" id="Ebene_1" xmlns="http://www.w3.org/2000/svg" xmlns:xlink="http://www.w3.org/1999/xlink" x="0px" y="0px"
	 width="81px" height="154.8px" viewBox="0 0 81 154.8" style="enable-background:new 0 0 81 154.8;" xml:space="preserve">
<style type="text/css">
	.st0{fill:#005A88;}
</style>
<path class="st0" d="M40.7,50H81v-1H40.7c-0.3,0-0.5,0.2-0.5,0.5S40.5,50,40.7,50z"/>
<path class="st0" d="M9.4,86.9l9.4,9.7c0.1,0.2,0.4,0.2,0.6,0c0.2-0.1,0.2-0.4,0-0.6L9.1,85.4c-0.1-0.1-0.3-0.1-0.4-0.1
	c-0.1,0-0.2,0.1-0.3,0.2L0.1,97.2c-0.2,0.3-0.1,0.5,0.2,0.4c0.2,0.2,0.5,0.1,0.6-0.1l7.6-10.7c0.3,31.9,21.4,58.9,50.4,68.2h3.1
	C31.9,146.8,9.6,119.5,9.4,86.9z"/>
<path class="st0" d="M62.3,15.1C62.3,8.9,65.4,3.4,70,0h-1.5c-4.3,3.6-7.1,9-7.1,15c0,10.8,8.8,19.6,19.6,19.6v-0.9
	C70.7,33.7,62.3,25.4,62.3,15.1z"/>
</svg>
