<?xml version="1.0" encoding="utf-8"?>
<!-- Generator: Adobe Illustrator 19.2.0, SVG Export Plug-In . SVG Version: 6.00 Build 0)  -->
<svg version="1.1" id="Ebene_1" xmlns="http://www.w3.org/2000/svg" xmlns:xlink="http://www.w3.org/1999/xlink" x="0px" y="0px"
	 width="81px" height="159px" viewBox="0 0 81 159" style="enable-background:new 0 0 81 159;" xml:space="preserve">
<style type="text/css">
	.st0{fill:#005A88;}
</style>
<path class="st0" d="M40.7,54.2H81v-1H40.7c-0.3,0-0.5,0.2-0.5,0.5S40.5,54.2,40.7,54.2z"/>
<path class="st0" d="M9.4,91.1l9.4,9.7c0.1,0.2,0.4,0.2,0.6,0c0.2-0.1,0.2-0.4,0-0.6L9.1,89.6c-0.1-0.1-0.3-0.1-0.4-0.1
	c-0.1,0-0.2,0.1-0.3,0.2l-8.3,11.7c-0.2,0.3-0.1,0.5,0.2,0.4c0.2,0.2,0.5,0.1,0.6-0.1L8.5,91c0.3,31.9,21.4,58.9,50.4,68.2h3.1
	C31.9,151,9.6,123.7,9.4,91.1z"/>
<path class="st0" d="M81,38.8v-0.9c-10.3,0-18.7-8.3-18.7-18.6C62.3,9,70.7,0.6,81,0.6v-0.9c-10.8,0-19.6,8.8-19.6,19.5
	C61.4,30,70.2,38.8,81,38.8z"/>
</svg>
