<?xml version="1.0" encoding="utf-8"?>
<!-- Generator: Adobe Illustrator 19.2.0, SVG Export Plug-In . SVG Version: 6.00 Build 0)  -->
<svg version="1.1" id="Ebene_1" xmlns="http://www.w3.org/2000/svg" xmlns:xlink="http://www.w3.org/1999/xlink" x="0px" y="0px"
	 width="81px" height="154.8px" viewBox="0 0 81 154.8" style="enable-background:new 0 0 81 154.8;" xml:space="preserve">
<style type="text/css">
	.st0{fill:#FFFFFF;}
</style>
<path class="st0" d="M40.3,50H0v-1h40.3c0.3,0,0.5,0.2,0.5,0.5S40.5,50,40.3,50z"/>
<path class="st0" d="M71.6,86.9l-9.4,9.7c-0.1,0.2-0.4,0.2-0.6,0c-0.2-0.1-0.2-0.4,0-0.6l10.3-10.6c0.1-0.1,0.3-0.1,0.4-0.1
	s0.2,0.1,0.3,0.2l8.3,11.7c0.2,0.3,0.1,0.5-0.2,0.4c-0.2,0.2-0.5,0.1-0.6-0.1l-7.6-10.7c-0.3,31.9-21.4,58.9-50.4,68.2H19
	C49,146.8,71.3,119.5,71.6,86.9z"/>
<path class="st0" d="M18.7,15.1C18.7,8.9,15.6,3.4,11,0h1.5c4.3,3.6,7.1,9,7.1,15c0,10.8-8.8,19.6-19.6,19.6v-0.9
	C10.3,33.7,18.7,25.4,18.7,15.1z"/>
</svg>
