<?xml version="1.0" encoding="utf-8"?>
<!-- Generator: Adobe Illustrator 19.2.0, SVG Export Plug-In . SVG Version: 6.00 Build 0)  -->
<svg version="1.1" id="Ebene_1" xmlns="http://www.w3.org/2000/svg" xmlns:xlink="http://www.w3.org/1999/xlink" x="0px" y="0px"
	 width="668px" height="1280px" viewBox="0 0 668 1280" style="enable-background:new 0 0 668 1280;" xml:space="preserve">
<style type="text/css">
	.st0{fill:#005A87;}
</style>
<g id="Logo">
	<path class="st0" d="M436.3,1251.4c-70.1-29.5-133.1-71.8-187.2-125.7c-54.1-53.9-96.5-116.6-126.2-186.4
		c-30.1-70.9-45.7-146.1-46.3-223.6l77.2,80.1c1.3,1.4,3.6,1.4,4.9,0.1c1.4-1.3,1.4-3.6,0.1-4.9l-84.3-87.5
		c-0.7-0.8-1.7-1.1-2.8-1.1c-1,0.1-2,0.6-2.6,1.5L1.1,800.1C0,801.7,0.4,803.9,2,805s3.8,0.7,4.9-0.8l62.8-88.8
		C70.2,794,86,870.2,116.5,942c30,70.7,73,134.1,127.7,188.6c54.7,54.5,118.4,97.3,189.4,127.2c20.3,8.5,40.9,15.9,61.9,22.1H522
		C492.9,1272.7,464.2,1263.2,436.3,1251.4"/>
	<path class="st0" d="M504.9,124.9c0,88.5,72,160.5,160.6,160.5c0.8,0,1.7,0,2.5,0v-7c-0.8,0-1.7,0-2.5,0
		c-84.7,0-153.6-68.9-153.6-153.5c0-51.4,25.4-97,64.4-124.9h-11.5C528.3,29.5,504.9,74.5,504.9,124.9"/>
	<path class="st0" d="M331.3,408.4c0,1.9,1.6,3.5,3.5,3.5H668v-7H334.8C332.8,404.9,331.3,406.4,331.3,408.4"/>
</g>
</svg>
