<?xml version="1.0" encoding="UTF-8"?>
<!DOCTYPE svg PUBLIC "-//W3C//DTD SVG 1.1//EN" "http://www.w3.org/Graphics/SVG/1.1/DTD/svg11.dtd">
<svg version="1.1" xmlns="http://www.w3.org/2000/svg" xmlns:xlink="http://www.w3.org/1999/xlink" x="0" y="0" width="668" height="1280" viewBox="0, 0, 668, 1280">
  <defs>
    <clipPath id="Clip_1">
      <path d="M0,0 L668,0 L668,1280 L0,1280 z"/>
    </clipPath>
  </defs>
  <g id="Logo">
    <g clip-path="url(#Clip_1)">
      <path d="M231.705,1251.413 C301.823,1221.874 364.797,1179.587 418.876,1125.725 C472.954,1071.864 515.411,1009.144 545.067,939.309 C575.167,868.432 590.721,793.225 591.32,715.699 L514.092,795.794 C512.75,797.184 510.534,797.226 509.143,795.884 C507.752,794.542 507.711,792.326 509.053,790.934 L593.378,703.479 C594.101,702.729 595.12,702.342 596.162,702.419 C597.202,702.498 598.152,703.036 598.755,703.888 L666.855,800.124 C667.973,801.702 667.599,803.886 666.02,805.003 C664.442,806.12 662.259,805.744 661.142,804.167 L598.322,715.394 C597.762,793.975 582.019,870.203 551.511,942.046 C521.499,1012.716 478.536,1076.184 423.815,1130.684 C369.096,1185.184 305.375,1227.974 234.423,1257.863 C214.132,1266.411 193.491,1273.789 172.549,1280 L145.953,1280 C175.126,1272.72 203.752,1263.188 231.705,1251.413" fill="#FFFFFF"/>
      <path d="M163.1,124.906 C163.1,213.425 91.055,285.44 2.499,285.44 C1.664,285.44 0.833,285.422 -0,285.408 L-0,278.408 C0.833,278.422 1.664,278.44 2.499,278.44 C87.195,278.44 156.1,209.565 156.1,124.906 C156.1,73.477 130.669,27.878 91.721,0 L103.263,0 C139.731,29.453 163.1,74.5 163.1,124.906" fill="#FFFFFF"/>
      <path d="M336.745,408.367 C336.745,410.3 335.178,411.867 333.245,411.867 L0,411.867 L0,404.867 L333.245,404.867 C335.179,404.867 336.745,406.434 336.745,408.367" fill="#FFFFFF"/>
    </g>
  </g>
</svg>
