<?xml version="1.0" encoding="UTF-8"?>
<!DOCTYPE svg PUBLIC "-//W3C//DTD SVG 1.1//EN" "http://www.w3.org/Graphics/SVG/1.1/DTD/svg11.dtd">
<svg version="1.1" xmlns="http://www.w3.org/2000/svg" xmlns:xlink="http://www.w3.org/1999/xlink" x="0" y="0" width="668" height="1280" viewBox="0, 0, 668, 1280">
  <g id="Logo">
    <path d="M436.295,1251.413 C366.176,1221.874 303.203,1179.587 249.124,1125.725 C195.046,1071.864 152.589,1009.144 122.932,939.309 C92.833,868.432 77.279,793.225 76.68,715.699 L153.908,795.794 C155.25,797.184 157.465,797.226 158.857,795.884 C160.248,794.542 160.289,792.326 158.947,790.934 L74.622,703.479 C73.898,702.729 72.879,702.342 71.837,702.419 C70.798,702.498 69.847,703.036 69.245,703.888 L1.144,800.124 C0.027,801.702 0.401,803.886 1.979,805.003 C3.557,806.12 5.741,805.744 6.858,804.167 L69.677,715.394 C70.238,793.975 85.98,870.203 116.489,942.046 C146.5,1012.716 189.463,1076.184 244.184,1130.684 C298.904,1185.184 362.625,1227.974 433.577,1257.863 C453.868,1266.411 474.509,1273.789 495.451,1280 L522.047,1280 C492.874,1272.72 464.248,1263.188 436.295,1251.413" fill="#005A87"/>
    <path d="M504.9,124.906 C504.9,213.425 576.945,285.44 665.501,285.44 C666.336,285.44 667.168,285.422 668,285.408 L668,278.408 C667.168,278.422 666.336,278.44 665.501,278.44 C580.804,278.44 511.9,209.565 511.9,124.906 C511.9,73.477 537.331,27.878 576.279,-0 L564.738,-0 C528.269,29.453 504.9,74.5 504.9,124.906" fill="#005A87"/>
    <path d="M331.255,408.367 C331.255,410.3 332.822,411.867 334.755,411.867 L668,411.867 L668,404.867 L334.755,404.867 C332.822,404.867 331.255,406.434 331.255,408.367" fill="#005A87"/>
  </g>
</svg>
