<?xml version="1.0" encoding="UTF-8"?>
<!DOCTYPE svg PUBLIC "-//W3C//DTD SVG 1.1//EN" "http://www.w3.org/Graphics/SVG/1.1/DTD/svg11.dtd">
<svg version="1.1" xmlns="http://www.w3.org/2000/svg" xmlns:xlink="http://www.w3.org/1999/xlink" x="0" y="0" width="375" height="663" viewBox="0, 0, 375, 663">
  <defs>
    <clipPath id="Clip_1">
      <path d="M0,0 L375,0 L375,663 L0,663 z"/>
    </clipPath>
  </defs>
  <g id="Logo">
    <g clip-path="url(#Clip_1)">
      <path d="M284.358,651.817 C256.928,640.261 232.294,623.718 211.138,602.648 C189.983,581.579 173.374,557.043 161.772,529.723 C149.998,501.997 143.914,472.576 143.679,442.249 L173.89,473.582 C174.415,474.126 175.282,474.142 175.826,473.617 C176.371,473.091 176.386,472.225 175.861,471.68 L142.874,437.468 C142.59,437.175 142.192,437.023 141.785,437.053 C141.378,437.085 141.006,437.296 140.77,437.629 L114.13,475.275 C113.693,475.892 113.839,476.747 114.457,477.184 C115.074,477.621 115.928,477.474 116.365,476.857 L140.94,442.13 C141.159,472.87 147.317,502.69 159.253,530.795 C170.993,558.44 187.799,583.268 209.206,604.588 C230.612,625.909 255.539,642.647 283.295,654.339 C291.232,657.684 299.307,660.57 307.5,663 L317.904,663 C306.492,660.152 295.294,656.423 284.358,651.817" fill="#005986"/>
      <path d="M243.268,322.023 C243.268,322.78 243.881,323.392 244.637,323.392 L375,323.392 L375,320.654 L244.637,320.654 C243.881,320.654 243.268,321.267 243.268,322.023" fill="#005986"/>
      <path d="M375,271.175 C374.714,271.179 374.432,271.196 374.145,271.196 C340.957,271.196 314.053,244.293 314.053,211.106 C314.053,177.918 340.957,151.014 374.145,151.014 C374.432,151.014 374.714,151.031 375,151.035 L375,148.298 C374.714,148.294 374.432,148.276 374.145,148.276 C339.5,148.276 311.314,176.461 311.314,211.106 C311.314,245.749 339.5,273.935 374.145,273.935 C374.432,273.935 374.714,273.916 375,273.912 z" fill="#005986"/>
    </g>
  </g>
</svg>
