<?xml version="1.0" encoding="utf-8"?>
<!-- Generator: Adobe Illustrator 19.2.0, SVG Export Plug-In . SVG Version: 6.00 Build 0)  -->
<svg version="1.1" id="Ebene_1" xmlns="http://www.w3.org/2000/svg" xmlns:xlink="http://www.w3.org/1999/xlink" x="0px" y="0px"
	 width="375px" height="663px" viewBox="0 0 375 663" style="enable-background:new 0 0 375 663;" xml:space="preserve">
<style type="text/css">
	.st0{clip-path:url(#SVGID_2_);}
	.st1{fill:#FFFFFF;}
</style>
<g id="Logo">
	<g>
		<defs>
			<rect id="SVGID_1_" width="375" height="663"/>
		</defs>
		<clipPath id="SVGID_2_">
			<use xlink:href="#SVGID_1_"  style="overflow:visible;"/>
		</clipPath>
		<g class="st0">
			<path class="st1" d="M90.6,651.8c-10.9,4.6-22.1,8.3-33.5,11.2h10.4c8.2-2.4,16.3-5.3,24.2-8.7c27.8-11.7,52.7-28.4,74.1-49.8
				c21.4-21.3,38.2-46.1,50-73.8c11.9-28.1,18.1-57.9,18.3-88.7l24.6,34.7c0.4,0.6,1.3,0.8,1.9,0.3c0.6-0.4,0.8-1.3,0.3-1.9
				l-26.6-37.6c-0.2-0.3-0.6-0.5-1-0.6c-0.4,0-0.8,0.1-1.1,0.4l-33,34.2c-0.5,0.5-0.5,1.4,0,1.9c0.5,0.5,1.4,0.5,1.9,0l30.2-31.3
				c-0.2,30.3-6.3,59.7-18.1,87.5c-11.6,27.3-28.2,51.9-49.4,72.9C142.7,623.7,118.1,640.3,90.6,651.8"/>
			<path class="st1" d="M131.7,322c0-0.8-0.6-1.4-1.4-1.4H0l0,2.7h130.4C131.1,323.4,131.7,322.8,131.7,322"/>
			<path class="st1" d="M0,273.9c0.3,0,0.6,0,0.9,0c34.6,0,62.8-28.2,62.8-62.8c0-34.6-28.2-62.8-62.8-62.8c-0.3,0-0.6,0-0.9,0
				l0,2.7c0.3,0,0.6,0,0.9,0c33.2,0,60.1,26.9,60.1,60.1c0,33.2-26.9,60.1-60.1,60.1c-0.3,0-0.6,0-0.9,0L0,273.9z"/>
		</g>
	</g>
</g>
</svg>
