<?xml version="1.0" encoding="utf-8"?>
<!-- Generator: Adobe Illustrator 19.2.0, SVG Export Plug-In . SVG Version: 6.00 Build 0)  -->
<svg version="1.1" id="Ebene_1" xmlns="http://www.w3.org/2000/svg" xmlns:xlink="http://www.w3.org/1999/xlink" x="0px" y="0px"
	 width="375px" height="663px" viewBox="0 0 375 663" style="enable-background:new 0 0 375 663;" xml:space="preserve">
<style type="text/css">
	.st0{fill:#005A87;}
</style>
<g id="Logo">
	<path class="st0" d="M284.4,651.8c-27.4-11.6-52.1-28.1-73.2-49.2c-21.2-21.1-37.8-45.6-49.4-72.9c-11.8-27.7-17.9-57.1-18.1-87.5
		l30.2,31.3c0.5,0.5,1.4,0.6,1.9,0c0.5-0.5,0.6-1.4,0-1.9l-33-34.2c-0.3-0.3-0.7-0.4-1.1-0.4c-0.4,0-0.8,0.2-1,0.6l-26.6,37.6
		c-0.4,0.6-0.3,1.5,0.3,1.9c0.6,0.4,1.5,0.3,1.9-0.3l24.6-34.7c0.2,30.7,6.4,60.6,18.3,88.7c11.7,27.6,28.5,52.5,50,73.8
		c21.4,21.3,46.3,38.1,74.1,49.8c7.9,3.3,16,6.2,24.2,8.7h10.4C306.5,660.2,295.3,656.4,284.4,651.8"/>
	<path class="st0" d="M243.3,322c0,0.8,0.6,1.4,1.4,1.4H375v-2.7H244.6C243.9,320.7,243.3,321.3,243.3,322"/>
	<path class="st0" d="M375,271.2c-0.3,0-0.6,0-0.9,0c-33.2,0-60.1-26.9-60.1-60.1c0-33.2,26.9-60.1,60.1-60.1c0.3,0,0.6,0,0.9,0
		v-2.7c-0.3,0-0.6,0-0.9,0c-34.6,0-62.8,28.2-62.8,62.8c0,34.6,28.2,62.8,62.8,62.8c0.3,0,0.6,0,0.9,0V271.2z"/>
</g>
</svg>
