<?xml version="1.0" encoding="utf-8"?>
<!-- Generator: Adobe Illustrator 19.2.0, SVG Export Plug-In . SVG Version: 6.00 Build 0)  -->
<svg version="1.1"
	 id="svg3307" inkscape:version="0.48.1 " sodipodi:docname="mail.pdf" xmlns:cc="http://creativecommons.org/ns#" xmlns:dc="http://purl.org/dc/elements/1.1/" xmlns:inkscape="http://www.inkscape.org/namespaces/inkscape" xmlns:rdf="http://www.w3.org/1999/02/22-rdf-syntax-ns#" xmlns:sodipodi="http://sodipodi.sourceforge.net/DTD/sodipodi-0.dtd" xmlns:svg="http://www.w3.org/2000/svg"
	 xmlns="http://www.w3.org/2000/svg" xmlns:xlink="http://www.w3.org/1999/xlink" x="0px" y="0px" width="545px" height="410px"
	 viewBox="0 0 545 410" style="enable-background:new 0 0 545 410;" xml:space="preserve">
<style type="text/css">
	.st0{fill:#FFFFFF;}
</style>
<sodipodi:namedview  bordercolor="#666666" borderopacity="1" gridtolerance="10" guidetolerance="10" id="namedview3309" inkscape:current-layer="g3315" inkscape:cx="448.75" inkscape:cy="381.25" inkscape:pageopacity="0" inkscape:pageshadow="2" inkscape:window-height="480" inkscape:window-maximized="0" inkscape:window-width="640" inkscape:window-x="548" inkscape:window-y="96" inkscape:zoom="0.38163934" objecttolerance="10" pagecolor="#ffffff" showgrid="false">
	</sodipodi:namedview>
<path class="st0" d="M1.6,2v405.9h540.9V2H1.6z M293,234.7c-4.8,4.8-12.1,7.6-20.1,7.6c0,0,0,0-0.1,0c-8,0-15.4-2.9-20.4-7.9
	L52.5,32h442.1L293,234.7z M180.4,204.1L31.6,356.4V53.5L180.4,204.1z M201.5,225.5l29.7,30.1c10.5,10.7,25.7,16.8,41.7,16.8
	c0,0,0.1,0,0.1,0c15.9,0,31-6,41.3-16.5l29.4-29.6l148.1,151.6H52.5L201.5,225.5z M364.9,205L512.5,56.6v299.5L364.9,205z"/>
</svg>
