<?xml version="1.0" encoding="utf-8"?>
<!-- Generator: Adobe Illustrator 19.2.0, SVG Export Plug-In . SVG Version: 6.00 Build 0)  -->
<svg version="1.1"
	 id="svg3307" inkscape:version="0.48.1 " sodipodi:docname="mail.pdf" xmlns:cc="http://creativecommons.org/ns#" xmlns:dc="http://purl.org/dc/elements/1.1/" xmlns:inkscape="http://www.inkscape.org/namespaces/inkscape" xmlns:rdf="http://www.w3.org/1999/02/22-rdf-syntax-ns#" xmlns:sodipodi="http://sodipodi.sourceforge.net/DTD/sodipodi-0.dtd" xmlns:svg="http://www.w3.org/2000/svg"
	 xmlns="http://www.w3.org/2000/svg" xmlns:xlink="http://www.w3.org/1999/xlink" x="0px" y="0px" width="545px" height="205px"
	 viewBox="0 0 545 205" style="enable-background:new 0 0 545 205;" xml:space="preserve">
<style type="text/css">
	.st0{fill:none;stroke:#FFFFFF;stroke-width:2.5;stroke-linecap:round;stroke-linejoin:round;stroke-miterlimit:10;}
	.st1{fill:#FFFFFF;}
</style>
<sodipodi:namedview  bordercolor="#666666" borderopacity="1" gridtolerance="10" guidetolerance="10" id="namedview3309" inkscape:current-layer="g3315" inkscape:cx="448.75" inkscape:cy="381.25" inkscape:pageopacity="0" inkscape:pageshadow="2" inkscape:window-height="480" inkscape:window-maximized="0" inkscape:window-width="640" inkscape:window-x="548" inkscape:window-y="96" inkscape:zoom="0.38163934" objecttolerance="10" pagecolor="#ffffff" showgrid="false">
	</sodipodi:namedview>
<g>
	<path class="st0" d="M414.2,50.3"/>
	<path class="st1" d="M342.9,180.4c-0.7,0-1.4-0.3-1.9-0.8c-1.1-1.1-1.1-2.8,0-3.8l45.8-45.8c8-8,10.2-19.8,5.7-30.2l-7.9-18.1
		c-0.9-2.2-0.5-4.6,1.2-6.3l24.7-24.7l-19.2-19.2l-24.7,24.7c-1.7,1.7-4.1,2.1-6.3,1.2l-18.1-7.9c-10.3-4.5-22.2-2.2-30.2,5.7
		L188.2,179.2c-1.1,1.1-2.8,1.1-3.8,0c-1.1-1.1-1.1-2.8,0-3.8L308.2,51.5c9.6-9.6,23.7-12.3,36.1-6.9l18.1,7.9c0.1,0,0.2,0,0.3-0.1
		l26.6-26.6c1.1-1.1,2.8-1.1,3.8,0l23,23c1.1,1.1,1.1,2.8,0,3.8l-26.6,26.6c-0.1,0.1-0.1,0.2-0.1,0.3l7.9,18.1
		c5.4,12.4,2.7,26.6-6.9,36.1l-45.8,45.8C344.2,180.2,343.5,180.4,342.9,180.4z"/>
	<path class="st1" d="M419.7,56.1c-2.3,0-4.5-0.9-6.2-2.6c0,0,0,0,0,0l-24.9-24.9c-3.4-3.4-3.4-9,0-12.5l2.9-2.9
		c3.4-3.4,9-3.4,12.5,0l24.9,24.9c1.7,1.7,2.6,3.9,2.6,6.2s-0.9,4.6-2.6,6.2l-2.9,2.9C424.2,55.2,421.9,56.1,419.7,56.1z
		 M417.2,49.7c1.3,1.3,3.5,1.3,4.8,0l2.9-2.9c0.6-0.6,1-1.5,1-2.4s-0.4-1.8-1-2.4l-24.9-24.9c-1.3-1.3-3.5-1.3-4.8,0l-2.9,2.9
		c-0.6,0.6-1,1.5-1,2.4c0,0.9,0.4,1.8,1,2.4L417.2,49.7z"/>
	<path class="st1" d="M421.9,37.9L421.9,37.9c-0.7,0-1.4-0.3-1.9-0.8l-15-15c-1.1-1.1-1.1-2.8,0-3.8l15-15c1.1-1.1,2.8-1.1,3.8,0
		l15,15c0.5,0.5,0.8,1.2,0.8,1.9s-0.3,1.4-0.8,1.9l-15,15C423.3,37.6,422.6,37.9,421.9,37.9z M410.7,20.1l11.2,11.2l11.2-11.2
		L421.9,8.9L410.7,20.1z"/>
	<g>
		<path class="st1" d="M325.4,130.9l4.8-62.6c-0.7-0.1-1.4,0-1.9,0.6l-65.9,65.9c-0.5,0.5-0.6,1-0.6,1.6l62.6-4.5
			C324.9,131.9,325.3,131.4,325.4,130.9z"/>
		<path class="st1" d="M374.2,111.8l-37.9-37.9l-4.4,57.5c-0.1,1.9-1,3.6-2.2,4.8c-1.2,1.2-2.9,2.1-4.8,2.2l-57.8,4.2l19.9,19.9
			c6.6-2.7,15.1-4.4,24.3-4.4c6.4,0,12.4,0.8,17.6,2.2l45.4-45.4C375.1,114,375.1,112.7,374.2,111.8z"/>
	</g>
	<path class="st1" d="M542.3,205c-20.3,0-30.5-9.2-40.4-18c-9.5-8.6-18.5-16.6-36.7-16.6c-18.2,0-27.2,8.1-36.7,16.6
		c-9.9,8.9-20,18-40.4,18c-20.3,0-30.5-9.2-40.4-18c-9.5-8.6-18.5-16.6-36.7-16.6c-18.2,0-27.2,8.1-36.7,16.6
		c-9.9,8.9-20,18-40.4,18s-30.5-9.2-40.4-18c-9.5-8.6-18.5-16.6-36.7-16.6s-27.2,8.1-36.7,16.6c-9.9,8.9-20,18-40.4,18
		c-20.3,0-30.5-9.2-40.3-18c-9.5-8.6-18.5-16.6-36.7-16.6c-1.5,0-2.7-1.2-2.7-2.7c0-1.5,1.2-2.7,2.7-2.7c20.3,0,30.5,9.2,40.3,18
		c9.5,8.6,18.5,16.6,36.7,16.6c18.2,0,27.2-8.1,36.7-16.6c9.9-8.9,20-18,40.4-18s30.5,9.2,40.4,18c9.5,8.6,18.5,16.6,36.7,16.6
		c18.2,0,27.2-8.1,36.7-16.6c9.9-8.9,20-18,40.4-18s30.5,9.2,40.4,18c9.5,8.6,18.5,16.6,36.7,16.6c18.2,0,27.2-8.1,36.7-16.6
		c9.9-8.9,20-18,40.4-18c20.3,0,30.5,9.2,40.4,18c9.5,8.6,18.5,16.6,36.7,16.6c1.5,0,2.7,1.2,2.7,2.7C545,203.8,543.8,205,542.3,205
		z"/>
</g>
</svg>
