<?xml version="1.0" encoding="utf-8"?>
<!-- Generator: Adobe Illustrator 19.2.0, SVG Export Plug-In . SVG Version: 6.00 Build 0)  -->
<svg version="1.1" id="Ebene_1" xmlns="http://www.w3.org/2000/svg" xmlns:xlink="http://www.w3.org/1999/xlink" x="0px" y="0px"
	 width="129px" height="34px" viewBox="0 0 129 34" style="enable-background:new 0 0 129 34;" xml:space="preserve">
<style type="text/css">
	.st0{fill:#005986;}
</style>
<g>
	<g>
		<g>
			<path class="st0" d="M96.3,12.2h1.6v2.1h-1.6V12.2z"/>
		</g>
		<g>
			<path class="st0" d="M93.2,14.3l-0.2-2.5h0c-0.2,0.5-0.5,0.9-0.9,1.3c-0.3,0.4-0.7,0.7-1.1,0.9c-0.4,0.2-0.9,0.4-1.3,0.5
				c-0.5,0.1-1,0.2-1.5,0.2c-1.1,0-2.1-0.2-2.9-0.6c-0.8-0.4-1.5-0.9-2.1-1.6c-0.5-0.7-1-1.4-1.2-2.3c-0.3-0.9-0.4-1.8-0.4-2.8
				s0.1-1.9,0.4-2.8s0.7-1.6,1.2-2.3c0.5-0.7,1.2-1.2,2.1-1.6C86.1,0.2,87.1,0,88.2,0c0.7,0,1.4,0.1,2.1,0.3
				c0.7,0.2,1.2,0.5,1.7,0.9c0.5,0.4,0.9,0.9,1.3,1.4c0.4,0.6,0.6,1.2,0.7,2h-1.3c0-0.4-0.2-0.8-0.4-1.2c-0.2-0.4-0.5-0.8-0.9-1.1
				C91,1.9,90.5,1.7,90,1.5c-0.5-0.2-1.1-0.3-1.8-0.3c-0.9,0-1.7,0.2-2.4,0.5c-0.7,0.4-1.2,0.8-1.6,1.4c-0.4,0.6-0.7,1.2-0.9,2
				c-0.2,0.7-0.3,1.5-0.3,2.2c0,0.8,0.1,1.5,0.3,2.2c0.2,0.7,0.5,1.4,0.9,2c0.4,0.6,1,1,1.6,1.4c0.7,0.4,1.5,0.5,2.4,0.5
				c0.8,0,1.5-0.1,2.1-0.4c0.6-0.3,1.1-0.6,1.5-1.1c0.4-0.5,0.7-1,0.9-1.6C92.9,9.7,93,9,93,8.3h-4.8V7.2h5.9v7.1H93.2z"/>
		</g>
		<g>
			<path class="st0" d="M70.4,0.3l8.1,11.8h0V0.3H80v14h-1.5L70.3,2.4h0v11.8H69v-14H70.4z"/>
		</g>
		<g>
			<path class="st0" d="M66.7,0.3v14h-1.3v-14H66.7z"/>
		</g>
		<g>
			<path class="st0" d="M56.9,0.3c2.1,0.1,3.7,0.6,4.8,1.8c1.1,1.1,1.6,2.9,1.6,5.2s-0.5,4.1-1.6,5.2c-1.1,1.1-2.7,1.7-4.8,1.8H52
				v-14H56.9z M56.2,13.1c1,0,1.9-0.1,2.6-0.3c0.7-0.2,1.3-0.6,1.8-1c0.5-0.5,0.8-1.1,1-1.8c0.2-0.7,0.3-1.6,0.3-2.7
				s-0.1-1.9-0.3-2.7c-0.2-0.7-0.6-1.3-1-1.8c-0.5-0.5-1.1-0.8-1.8-1c-0.7-0.2-1.6-0.3-2.6-0.3h-2.8v11.7H56.2z"/>
		</g>
		<g>
			<path class="st0" d="M40.3,0.3l8.1,11.8h0V0.3h1.3v14h-1.5L40.2,2.4h0v11.8h-1.3v-14H40.3z"/>
		</g>
		<g>
			<path class="st0" d="M32.3,0.3l5.5,14h-1.4l-1.7-4.3h-6.4l-1.7,4.3h-1.4l5.6-14H32.3z M34.2,8.8l-2.7-7.2l-2.8,7.2H34.2z"/>
		</g>
		<g>
			<path class="st0" d="M19.9,0.3c0.6,0,1.1,0.1,1.6,0.2s1,0.4,1.3,0.7c0.4,0.3,0.7,0.7,0.9,1.1c0.2,0.5,0.3,1,0.3,1.6
				c0,0.9-0.2,1.7-0.7,2.3c-0.5,0.7-1.1,1.1-2,1.3v0c0.5,0.1,0.8,0.2,1.1,0.4c0.3,0.2,0.5,0.4,0.7,0.7s0.3,0.6,0.4,0.9
				c0.1,0.4,0.1,0.7,0.2,1.2c0,0.2,0,0.5,0,0.9c0,0.3,0,0.7,0.1,1c0,0.3,0.1,0.7,0.2,1c0.1,0.3,0.2,0.5,0.3,0.7H23
				c-0.1-0.1-0.1-0.3-0.2-0.5c0-0.2-0.1-0.4-0.1-0.6c0-0.2,0-0.4,0-0.6c0-0.2,0-0.4,0-0.5c0-0.5-0.1-1-0.1-1.5s-0.2-0.9-0.4-1.3
				c-0.2-0.4-0.5-0.7-0.8-0.9C21,8.1,20.5,8,19.8,8.1h-5v6.2h-1.3v-14H19.9z M19.8,6.9c0.4,0,0.8-0.1,1.2-0.2c0.4-0.1,0.7-0.3,1-0.5
				c0.3-0.2,0.5-0.5,0.7-0.9c0.2-0.3,0.2-0.7,0.2-1.1c0-0.9-0.2-1.5-0.7-2s-1.3-0.7-2.3-0.7h-5v5.5H19.8z"/>
		</g>
		<g>
			<path class="st0" d="M6.9,0.3c0.6,0,1.2,0.1,1.7,0.2C9.2,0.6,9.6,0.8,10,1c0.4,0.3,0.7,0.6,1,1.1c0.2,0.4,0.4,1,0.4,1.6
				c0,0.4-0.1,0.7-0.2,1.1c-0.1,0.3-0.3,0.7-0.5,0.9C10.5,6,10.3,6.2,10,6.4C9.7,6.6,9.3,6.8,9,6.8v0C9.9,7,10.6,7.4,11.1,8
				c0.5,0.6,0.8,1.4,0.8,2.3c0,0.2,0,0.5-0.1,0.8c0,0.3-0.1,0.6-0.2,0.9c-0.1,0.3-0.3,0.6-0.5,0.9c-0.2,0.3-0.5,0.5-0.9,0.8
				c-0.4,0.2-0.8,0.4-1.4,0.5c-0.5,0.1-1.2,0.2-1.9,0.2H1v-14H6.9z M6.9,6.4c0.5,0,1-0.1,1.4-0.2c0.4-0.1,0.7-0.3,1-0.5
				S9.7,5.3,9.9,5C10,4.7,10.1,4.4,10.1,4c0-1.7-1.1-2.6-3.1-2.6H2.3v5H6.9z M6.9,13.1c0.5,0,1,0,1.4-0.1c0.4-0.1,0.8-0.2,1.2-0.5
				c0.3-0.2,0.6-0.5,0.8-0.9c0.2-0.4,0.3-0.8,0.3-1.4c0-0.9-0.3-1.6-0.9-2C9,7.8,8.1,7.5,6.9,7.5H2.3v5.6H6.9z"/>
		</g>
	</g>
	<g>
		<g>
			<g>
				<path class="st0" d="M117.7,19.3h2.6l6.4,10.3h0V19.3h2.3v14h-2.6L120.1,23H120v10.3h-2.3V19.3z"/>
			</g>
			<g>
				<path class="st0" d="M109.3,27.8l-5.2-8.5h2.8l3.7,6.3l3.6-6.3h2.7l-5.2,8.5v5.5h-2.4V27.8z"/>
			</g>
			<g>
				<path class="st0" d="M93.2,19.3h10.1v2.1h-7.6v3.7h7v2h-7v4.1h7.7v2.1H93.2V19.3z"/>
			</g>
			<g>
				<path class="st0" d="M80.4,19.3h11.3v2.1h-4.4v11.9h-2.4V21.5h-4.4V19.3z"/>
			</g>
			<g>
				<path class="st0" d="M68.9,19.3h6.2c1,0,1.8,0.1,2.4,0.4c0.6,0.3,1.1,0.6,1.4,1.1c0.3,0.4,0.6,0.9,0.7,1.4
					c0.1,0.5,0.2,1,0.2,1.4c0,0.4-0.1,0.9-0.2,1.4c-0.1,0.5-0.4,1-0.7,1.4c-0.3,0.4-0.8,0.8-1.4,1.1c-0.6,0.3-1.4,0.4-2.4,0.4h-3.7
					v5.4h-2.4V19.3z M71.4,26h3.6c0.3,0,0.6,0,0.8-0.1c0.3-0.1,0.6-0.2,0.8-0.4c0.2-0.2,0.4-0.4,0.6-0.7s0.2-0.7,0.2-1.1
					c0-0.5-0.1-0.8-0.2-1.1c-0.1-0.3-0.3-0.5-0.5-0.7c-0.2-0.2-0.5-0.3-0.8-0.4c-0.3-0.1-0.6-0.1-0.9-0.1h-3.6V26z"/>
			</g>
			<g>
				<path class="st0" d="M59.8,19.3h2.6l5.4,14h-2.6l-1.3-3.7h-5.6L57,33.3h-2.5L59.8,19.3z M58.9,27.8h4.3l-2.1-6h-0.1L58.9,27.8z"
					/>
			</g>
			<g>
				<path class="st0" d="M42.1,19.3h2.4v6.4l6.2-6.4h3l-5.6,5.6l6,8.4h-3.1l-4.6-6.7l-2,2v4.7h-2.4V19.3z"/>
			</g>
		</g>
		<g>
			<path class="st0" d="M23.8,19.3h2.6l6.4,10.3h0V19.3h2.3v14h-2.6L26.2,23h-0.1v10.3h-2.3V19.3z"/>
		</g>
		<g>
			<path class="st0" d="M14.8,19.3h2.6l5.4,14h-2.6l-1.3-3.7h-5.6L12,33.3H9.4L14.8,19.3z M13.9,27.8h4.3l-2.1-6H16L13.9,27.8z"/>
		</g>
		<g>
			<path class="st0" d="M8.8,28.8c0,0.6-0.1,1.2-0.2,1.8c-0.1,0.6-0.3,1.1-0.6,1.5c-0.3,0.5-0.8,0.8-1.4,1.1
				c-0.6,0.3-1.4,0.4-2.4,0.4c-0.7,0-1.4-0.1-1.9-0.3c-0.5-0.2-1-0.5-1.3-0.9c-0.3-0.4-0.6-0.9-0.7-1.4C0.1,30.4,0,29.8,0,29.2v-0.7
				h2.4v0.7c0,0.8,0.1,1.4,0.4,1.8c0.3,0.4,0.8,0.7,1.5,0.7c0.4,0,0.7-0.1,1-0.2c0.3-0.1,0.5-0.3,0.6-0.5c0.1-0.2,0.3-0.5,0.3-0.9
				c0.1-0.3,0.1-0.7,0.1-1.2v-9.6h2.4V28.8z"/>
		</g>
	</g>
</g>
</svg>
