<?xml version="1.0" encoding="utf-8"?>
<!-- Generator: Adobe Illustrator 19.2.0, SVG Export Plug-In . SVG Version: 6.00 Build 0)  -->
<svg version="1.1" id="Ebene_1" xmlns="http://www.w3.org/2000/svg" xmlns:xlink="http://www.w3.org/1999/xlink" x="0px" y="0px"
	 width="128.9px" height="33.6px" viewBox="0 0 128.9 33.6" style="enable-background:new 0 0 128.9 33.6;" xml:space="preserve">
<style type="text/css">
	.st0{fill:#005986;}
</style>
<g>
	<g>
		<path class="st0" d="M95.7,12.2h1.6v2.1h-1.6V12.2z"/>
	</g>
	<g>
		<path class="st0" d="M92.7,14.2l-0.2-2.5h0c-0.2,0.5-0.5,0.9-0.9,1.3c-0.3,0.4-0.7,0.7-1.1,0.9c-0.4,0.2-0.9,0.4-1.3,0.5
			c-0.5,0.1-1,0.2-1.5,0.2c-1.1,0-2.1-0.2-2.9-0.6s-1.5-0.9-2.1-1.6s-1-1.4-1.2-2.3s-0.4-1.8-0.4-2.7s0.1-1.9,0.4-2.7
			s0.7-1.6,1.2-2.3C83.3,1.6,84,1,84.8,0.6S86.6,0,87.7,0c0.7,0,1.4,0.1,2.1,0.3c0.6,0.2,1.2,0.5,1.7,0.9c0.5,0.4,0.9,0.9,1.3,1.4
			c0.4,0.6,0.6,1.2,0.7,2h-1.3c0-0.4-0.2-0.8-0.4-1.2c-0.2-0.4-0.5-0.8-0.9-1.1C90.5,2,90,1.7,89.5,1.5c-0.5-0.2-1.1-0.3-1.8-0.3
			c-0.9,0-1.7,0.2-2.4,0.5s-1.2,0.8-1.6,1.4s-0.7,1.2-0.9,2c-0.2,0.7-0.3,1.5-0.3,2.2c0,0.8,0.1,1.5,0.3,2.2s0.5,1.4,0.9,2
			c0.4,0.6,1,1,1.6,1.4c0.7,0.4,1.5,0.5,2.4,0.5c0.8,0,1.5-0.1,2.1-0.4s1.1-0.6,1.5-1.1c0.4-0.5,0.7-1,0.9-1.6s0.3-1.3,0.3-2h-4.7
			V7.2h5.9v7.1H92.7z"/>
	</g>
	<g>
		<path class="st0" d="M70,0.3l8.1,11.8h0V0.3h1.3v13.9H78L69.9,2.5h0v11.8h-1.3V0.3H70z"/>
	</g>
	<g>
		<path class="st0" d="M66.2,0.3v13.9h-1.3V0.3H66.2z"/>
	</g>
	<g>
		<path class="st0" d="M56.4,0.3c2.1,0.1,3.7,0.6,4.8,1.8c1.1,1.1,1.6,2.9,1.6,5.2s-0.5,4-1.6,5.2c-1.1,1.1-2.7,1.7-4.8,1.8h-4.8
			V0.3H56.4z M55.8,13.1c1,0,1.9-0.1,2.6-0.3c0.7-0.2,1.3-0.6,1.8-1c0.5-0.5,0.8-1.1,1-1.8c0.2-0.7,0.3-1.6,0.3-2.7
			s-0.1-1.9-0.3-2.7c-0.2-0.7-0.6-1.3-1-1.8c-0.5-0.5-1.1-0.8-1.8-1c-0.7-0.2-1.6-0.3-2.6-0.3h-2.8v11.7H55.8z"/>
	</g>
	<g>
		<path class="st0" d="M39.9,0.3L48,12.1h0V0.3h1.3v13.9h-1.5L39.8,2.5h0v11.8h-1.3V0.3H39.9z"/>
	</g>
	<g>
		<path class="st0" d="M31.9,0.3l5.5,13.9H36l-1.7-4.3h-6.3l-1.7,4.3h-1.4l5.6-13.9H31.9z M33.8,8.8l-2.7-7.1l-2.8,7.1H33.8z"/>
	</g>
	<g>
		<path class="st0" d="M19.6,0.3c0.6,0,1.1,0.1,1.6,0.2s1,0.4,1.3,0.7c0.4,0.3,0.7,0.7,0.9,1.1c0.2,0.5,0.3,1,0.3,1.6
			c0,0.9-0.2,1.7-0.7,2.3c-0.5,0.7-1.1,1.1-2,1.2v0c0.5,0.1,0.8,0.2,1.1,0.4c0.3,0.2,0.5,0.4,0.7,0.7s0.3,0.6,0.4,0.9
			s0.1,0.7,0.2,1.2c0,0.2,0,0.5,0,0.9c0,0.3,0,0.7,0.1,1c0,0.3,0.1,0.7,0.2,1c0.1,0.3,0.2,0.5,0.3,0.7h-1.5
			c-0.1-0.1-0.1-0.3-0.2-0.5c0-0.2-0.1-0.4-0.1-0.6c0-0.2,0-0.4,0-0.6c0-0.2,0-0.4,0-0.5c0-0.5-0.1-1-0.1-1.5S22,9.7,21.8,9.3
			c-0.2-0.4-0.5-0.7-0.8-0.9c-0.4-0.2-0.8-0.3-1.5-0.3h-5v6.2h-1.3V0.3H19.6z M19.5,6.9c0.4,0,0.8-0.1,1.2-0.2
			c0.4-0.1,0.7-0.3,1-0.5c0.3-0.2,0.5-0.5,0.7-0.8c0.2-0.3,0.2-0.7,0.2-1.1c0-0.9-0.2-1.5-0.7-2s-1.2-0.7-2.3-0.7h-5v5.5H19.5z"/>
	</g>
	<g>
		<path class="st0" d="M6.6,0.3c0.6,0,1.1,0.1,1.7,0.2c0.5,0.1,1,0.3,1.4,0.6c0.4,0.3,0.7,0.6,1,1.1c0.2,0.4,0.4,1,0.4,1.6
			c0,0.4-0.1,0.7-0.2,1.1c-0.1,0.3-0.3,0.7-0.5,0.9C10.2,6,10,6.2,9.7,6.4c-0.3,0.2-0.6,0.3-1,0.4v0C9.6,7,10.3,7.4,10.8,8
			c0.5,0.6,0.8,1.4,0.8,2.3c0,0.2,0,0.5-0.1,0.8c0,0.3-0.1,0.6-0.2,0.9c-0.1,0.3-0.3,0.6-0.5,0.9c-0.2,0.3-0.5,0.5-0.9,0.8
			c-0.4,0.2-0.8,0.4-1.4,0.5c-0.5,0.1-1.2,0.2-1.9,0.2H0.8V0.3H6.6z M6.6,6.4c0.5,0,1-0.1,1.4-0.2c0.4-0.1,0.7-0.3,1-0.5
			S9.5,5.3,9.6,5c0.1-0.3,0.2-0.6,0.2-0.9c0-1.7-1-2.6-3.1-2.6H2.1v5H6.6z M6.6,13.1c0.5,0,1,0,1.4-0.1c0.4-0.1,0.8-0.2,1.2-0.5
			c0.3-0.2,0.6-0.5,0.8-0.9c0.2-0.4,0.3-0.8,0.3-1.4c0-0.9-0.3-1.6-0.9-2C8.7,7.8,7.8,7.6,6.6,7.6H2.1v5.6H6.6z"/>
	</g>
</g>
<g>
	<g>
		<path class="st0" d="M117.6,19.3h2.6l6.4,10.3h0V19.3h2.3v13.9h-2.6L120,23h-0.1v10.2h-2.3V19.3z"/>
	</g>
	<g>
		<path class="st0" d="M109.3,27.8l-5.2-8.5h2.8l3.7,6.2l3.6-6.2h2.7l-5.2,8.5v5.5h-2.4V27.8z"/>
	</g>
	<g>
		<path class="st0" d="M93.2,19.3h10v2.1h-7.6v3.6h7v2h-7v4.1h7.7v2.1H93.2V19.3z"/>
	</g>
	<g>
		<path class="st0" d="M80.5,19.3h11.3v2.1h-4.4v11.8h-2.4V21.4h-4.4V19.3z"/>
	</g>
	<g>
		<path class="st0" d="M69,19.3h6.1c1,0,1.8,0.1,2.4,0.4c0.6,0.3,1.1,0.6,1.4,1.1c0.3,0.4,0.6,0.9,0.7,1.4s0.2,1,0.2,1.4
			c0,0.4-0.1,0.9-0.2,1.4s-0.4,1-0.7,1.4c-0.3,0.4-0.8,0.8-1.4,1.1c-0.6,0.3-1.4,0.4-2.4,0.4h-3.7v5.3H69V19.3z M71.4,25.9H75
			c0.3,0,0.6,0,0.8-0.1c0.3-0.1,0.5-0.2,0.8-0.4c0.2-0.2,0.4-0.4,0.6-0.7s0.2-0.7,0.2-1.1c0-0.5-0.1-0.8-0.2-1.1
			c-0.1-0.3-0.3-0.5-0.5-0.7c-0.2-0.2-0.5-0.3-0.8-0.4s-0.6-0.1-0.9-0.1h-3.6V25.9z"/>
	</g>
	<g>
		<path class="st0" d="M59.9,19.3h2.6l5.4,13.9h-2.6L64,29.5h-5.6l-1.3,3.7h-2.5L59.9,19.3z M59.1,27.7h4.3l-2.1-6h-0.1L59.1,27.7z"
			/>
	</g>
	<g>
		<path class="st0" d="M42.3,19.3h2.4v6.3l6.2-6.3h3l-5.6,5.6l5.9,8.4h-3l-4.6-6.6l-2,2v4.7h-2.4V19.3z"/>
	</g>
	<g>
		<path class="st0" d="M23.7,19.3h2.6l6.4,10.3h0V19.3H35v13.9h-2.6L26.1,23h-0.1v10.2h-2.3V19.3z"/>
	</g>
	<g>
		<path class="st0" d="M14.7,19.3h2.6l5.4,13.9h-2.6l-1.3-3.7h-5.6l-1.3,3.7H9.4L14.7,19.3z M13.9,27.7h4.3l-2.1-6H16L13.9,27.7z"/>
	</g>
	<g>
		<path class="st0" d="M8.7,28.7c0,0.6-0.1,1.2-0.2,1.8c-0.1,0.6-0.3,1.1-0.6,1.5c-0.3,0.5-0.8,0.8-1.4,1.1s-1.4,0.4-2.4,0.4
			c-0.7,0-1.4-0.1-1.9-0.3C1.7,33,1.3,32.7,1,32.3c-0.3-0.4-0.6-0.9-0.7-1.4C0.1,30.3,0,29.7,0,29.1v-0.7h2.4v0.7
			c0,0.8,0.1,1.4,0.4,1.8c0.3,0.4,0.8,0.7,1.5,0.7c0.4,0,0.7-0.1,1-0.2s0.5-0.3,0.6-0.5c0.1-0.2,0.2-0.5,0.3-0.8
			c0.1-0.3,0.1-0.7,0.1-1.2v-9.6h2.4V28.7z"/>
	</g>
</g>
</svg>
