<svg version="1.1" id="Ebene_1" xmlns="http://www.w3.org/2000/svg" xmlns:xlink="http://www.w3.org/1999/xlink" x="0px" y="0px"
	 width="129px" height="34px" viewBox="0 0 129 34" style="enable-background:new 0 0 129 34;" xml:space="preserve">
<style type="text/css">
	.st0{fill:#005986;}
</style>
<g>
	<rect x="96.3" y="12.2" class="st0" width="1.6" height="2.1"/>
	<path class="st0" d="M94.2,14.3V7.2h-5.9v1.1H93c0,0.7-0.1,1.4-0.3,2.1c-0.2,0.6-0.5,1.2-0.9,1.6c-0.4,0.5-0.9,0.8-1.5,1.1
		c-0.6,0.3-1.3,0.4-2.1,0.4c-0.9,0-1.7-0.2-2.4-0.5c-0.7-0.4-1.2-0.8-1.6-1.4c-0.4-0.6-0.7-1.2-0.9-2C83,8.8,82.9,8,82.9,7.3
		c0-0.8,0.1-1.5,0.3-2.2c0.2-0.7,0.5-1.4,0.9-2c0.4-0.6,1-1,1.6-1.4c0.7-0.4,1.5-0.5,2.4-0.5c0.7,0,1.3,0.1,1.8,0.3
		c0.5,0.2,1,0.5,1.4,0.8c0.4,0.3,0.7,0.7,0.9,1.1c0.2,0.4,0.4,0.8,0.4,1.2H94c-0.1-0.8-0.4-1.4-0.7-2C92.9,2,92.5,1.6,92,1.2
		c-0.5-0.4-1.1-0.7-1.7-0.9C89.6,0.1,88.9,0,88.2,0c-1.1,0-2.1,0.2-2.9,0.6c-0.8,0.4-1.5,0.9-2.1,1.6c-0.5,0.7-1,1.4-1.2,2.3
		s-0.4,1.8-0.4,2.8S81.7,9.2,82,10c0.3,0.9,0.7,1.6,1.2,2.3s1.2,1.2,2.1,1.6c0.8,0.4,1.8,0.6,2.9,0.6c0.5,0,1-0.1,1.5-0.2
		c0.5-0.1,0.9-0.3,1.3-0.5c0.4-0.2,0.8-0.5,1.1-0.9c0.3-0.4,0.6-0.8,0.9-1.3h0l0.2,2.5H94.2z"/>
	<polygon class="st0" points="78.6,12.1 78.6,12.1 70.4,0.3 69,0.3 69,14.3 70.3,14.3 70.3,2.4 70.3,2.4 78.5,14.3 80,14.3 80,0.3 
		78.6,0.3 	"/>
	<rect x="65.3" y="0.3" class="st0" width="1.3" height="14"/>
	<path class="st0" d="M61.7,12.5c1.1-1.1,1.6-2.9,1.6-5.2s-0.5-4.1-1.6-5.2c-1.1-1.1-2.7-1.7-4.8-1.8H52v14h4.8
		C59,14.2,60.6,13.6,61.7,12.5z M53.4,13.1V1.4h2.8c1,0,1.9,0.1,2.6,0.3c0.7,0.2,1.3,0.6,1.8,1c0.5,0.5,0.8,1.1,1,1.8
		c0.2,0.7,0.3,1.6,0.3,2.7s-0.1,1.9-0.3,2.7c-0.2,0.7-0.6,1.3-1,1.8c-0.5,0.5-1.1,0.8-1.8,1c-0.7,0.2-1.6,0.3-2.6,0.3H53.4z"/>
	<polygon class="st0" points="49.8,14.3 49.8,0.3 48.5,0.3 48.5,12.1 48.4,12.1 40.3,0.3 38.8,0.3 38.8,14.3 40.1,14.3 40.1,2.4 
		40.2,2.4 48.3,14.3 	"/>
	<path class="st0" d="M30.8,0.3l-5.6,14h1.4l1.7-4.3h6.4l1.7,4.3h1.4l-5.5-14H30.8z M28.7,8.8l2.8-7.2l2.7,7.2H28.7z"/>
	<path class="st0" d="M24.1,13.5c-0.1-0.3-0.1-0.6-0.2-1c0-0.3-0.1-0.7-0.1-1c0-0.3,0-0.6,0-0.9c0-0.4-0.1-0.8-0.2-1.2
		c-0.1-0.4-0.2-0.7-0.4-0.9c-0.2-0.3-0.4-0.5-0.7-0.7c-0.3-0.2-0.7-0.3-1.1-0.4v0c0.9-0.2,1.6-0.6,2-1.3c0.5-0.7,0.7-1.4,0.7-2.3
		c0-0.6-0.1-1.2-0.3-1.6c-0.2-0.5-0.5-0.8-0.9-1.1c-0.4-0.3-0.8-0.5-1.3-0.7s-1.1-0.2-1.6-0.2h-6.4v14h1.3V8.1h5
		c0.6,0,1.1,0.1,1.5,0.3c0.4,0.2,0.6,0.5,0.8,0.9c0.2,0.4,0.3,0.8,0.4,1.3c0.1,0.5,0.1,1,0.1,1.5c0,0.1,0,0.3,0,0.5
		c0,0.2,0,0.4,0,0.6c0,0.2,0.1,0.4,0.1,0.6c0,0.2,0.1,0.3,0.2,0.5h1.5C24.3,14.1,24.2,13.9,24.1,13.5z M20.9,6.7
		c-0.4,0.1-0.7,0.2-1.2,0.2h-5V1.4h5c1,0,1.8,0.2,2.3,0.7c0.5,0.5,0.7,1.2,0.7,2c0,0.4-0.1,0.8-0.2,1.1c-0.2,0.3-0.4,0.6-0.7,0.9
		C21.6,6.4,21.3,6.6,20.9,6.7z"/>
	<path class="st0" d="M11.1,12.8c0.2-0.3,0.4-0.6,0.5-0.9c0.1-0.3,0.2-0.6,0.2-0.9c0-0.3,0.1-0.5,0.1-0.8c0-0.9-0.3-1.7-0.8-2.3
		C10.6,7.4,9.9,7,9,6.9v0c0.4-0.1,0.7-0.2,1-0.4c0.3-0.2,0.5-0.4,0.8-0.7c0.2-0.3,0.4-0.6,0.5-0.9c0.1-0.3,0.2-0.7,0.2-1.1
		c0-0.7-0.1-1.2-0.4-1.6c-0.2-0.4-0.6-0.8-1-1.1C9.6,0.8,9.2,0.6,8.6,0.5C8.1,0.3,7.5,0.3,6.9,0.3H1v14h5.9c0.8,0,1.4-0.1,1.9-0.2
		c0.5-0.1,1-0.3,1.4-0.5C10.6,13.3,10.9,13.1,11.1,12.8z M2.3,1.4h4.6c2.1,0,3.1,0.9,3.1,2.6c0,0.3-0.1,0.6-0.2,0.9
		C9.7,5.3,9.5,5.5,9.3,5.7s-0.6,0.4-1,0.5C7.9,6.4,7.5,6.4,6.9,6.4H2.3V1.4z M9.5,12.5c-0.3,0.2-0.7,0.4-1.2,0.5
		c-0.4,0.1-0.9,0.1-1.4,0.1H2.3V7.5h4.6c1.2,0,2.1,0.2,2.7,0.7c0.6,0.4,0.9,1.1,0.9,2c0,0.6-0.1,1-0.3,1.4
		C10.1,12,9.8,12.3,9.5,12.5z"/>
	<polygon class="st0" points="126.7,19.3 126.7,29.6 126.6,29.6 120.3,19.3 117.7,19.3 117.7,33.3 120,33.3 120,23 120.1,23 
		126.4,33.3 129,33.3 129,19.3 	"/>
	<polygon class="st0" points="110.6,25.6 106.9,19.3 104.1,19.3 109.3,27.8 109.3,33.3 111.8,33.3 111.8,27.8 117,19.3 114.3,19.3 	
		"/>
	<polygon class="st0" points="95.6,27.1 102.7,27.1 102.7,25.1 95.6,25.1 95.6,21.5 103.2,21.5 103.2,19.3 93.2,19.3 93.2,33.3 
		103.4,33.3 103.4,31.2 95.6,31.2 	"/>
	<polygon class="st0" points="80.4,21.5 84.9,21.5 84.9,33.3 87.3,33.3 87.3,21.5 91.7,21.5 91.7,19.3 80.4,19.3 	"/>
	<path class="st0" d="M78.9,20.8c-0.3-0.4-0.8-0.8-1.4-1.1c-0.6-0.3-1.4-0.4-2.4-0.4h-6.2v14h2.4v-5.4h3.7c1,0,1.8-0.1,2.4-0.4
		c0.6-0.3,1.1-0.6,1.4-1.1c0.3-0.4,0.6-0.9,0.7-1.4c0.1-0.5,0.2-1,0.2-1.4c0-0.4-0.1-0.9-0.2-1.4C79.5,21.7,79.3,21.3,78.9,20.8z
		 M77.2,24.8c-0.1,0.3-0.3,0.5-0.6,0.7c-0.2,0.2-0.5,0.3-0.8,0.4c-0.3,0.1-0.6,0.1-0.8,0.1h-3.6v-4.6H75c0.3,0,0.6,0,0.9,0.1
		c0.3,0.1,0.5,0.2,0.8,0.4c0.2,0.2,0.4,0.4,0.5,0.7c0.1,0.3,0.2,0.7,0.2,1.1C77.4,24.1,77.3,24.5,77.2,24.8z"/>
	<path class="st0" d="M59.8,19.3l-5.4,14H57l1.3-3.7h5.6l1.3,3.7h2.6l-5.4-14H59.8z M58.9,27.8l2.1-6h0.1l2.1,6H58.9z"/>
	<polygon class="st0" points="53.8,19.3 50.7,19.3 44.5,25.7 44.5,19.3 42.1,19.3 42.1,33.3 44.5,33.3 44.5,28.6 46.5,26.6 
		51.1,33.3 54.1,33.3 48.2,24.9 	"/>
	<polygon class="st0" points="32.8,29.6 32.8,29.6 26.4,19.3 23.8,19.3 23.8,33.3 26.1,33.3 26.1,23 26.2,23 32.5,33.3 35.1,33.3 
		35.1,19.3 32.8,19.3 	"/>
	<path class="st0" d="M14.8,19.3l-5.4,14H12l1.3-3.7h5.6l1.3,3.7h2.6l-5.4-14H14.8z M13.9,27.8l2.1-6h0.1l2.1,6H13.9z"/>
	<path class="st0" d="M6.3,28.9c0,0.4,0,0.8-0.1,1.2c-0.1,0.3-0.2,0.6-0.3,0.9c-0.2,0.2-0.4,0.4-0.6,0.5c-0.3,0.1-0.6,0.2-1,0.2
		c-0.7,0-1.2-0.2-1.5-0.7c-0.3-0.4-0.4-1.1-0.4-1.8v-0.7H0v0.7c0,0.6,0.1,1.2,0.2,1.8c0.2,0.5,0.4,1,0.7,1.4
		c0.3,0.4,0.8,0.7,1.3,0.9c0.5,0.2,1.2,0.3,1.9,0.3c1,0,1.8-0.1,2.4-0.4C7.2,33,7.7,32.6,8,32.1c0.3-0.5,0.5-1,0.6-1.5
		c0.1-0.6,0.2-1.2,0.2-1.8v-9.5H6.3V28.9z"/>
</g>
</svg>
