<?xml version="1.0" encoding="utf-8"?>
<!-- Generator: Adobe Illustrator 19.2.0, SVG Export Plug-In . SVG Version: 6.00 Build 0)  -->
<svg version="1.1" id="Ebene_1" xmlns="http://www.w3.org/2000/svg" xmlns:xlink="http://www.w3.org/1999/xlink" x="0px" y="0px"
	 width="128.9px" height="33.6px" viewBox="0 0 128.9 33.6" style="enable-background:new 0 0 128.9 33.6;" xml:space="preserve">
<style type="text/css">
	.st0{fill:#005986;}
</style>
<g>
	<g>
		<g>
			<path class="st0" d="M96,12.1h1.6v2.1H96V12.1z"/>
		</g>
		<g>
			<path class="st0" d="M93,14.2l-0.2-2.5h0c-0.2,0.5-0.5,0.9-0.9,1.3c-0.3,0.4-0.7,0.7-1.1,0.9c-0.4,0.2-0.9,0.4-1.3,0.5
				c-0.5,0.1-1,0.2-1.5,0.2c-1.1,0-2.1-0.2-2.9-0.6S83.5,13,83,12.3s-1-1.4-1.2-2.3s-0.4-1.8-0.4-2.7s0.1-1.9,0.4-2.7
				s0.7-1.6,1.2-2.3C83.5,1.5,84.2,1,85,0.6S86.8,0,87.9,0c0.7,0,1.4,0.1,2.1,0.3c0.6,0.2,1.2,0.5,1.7,0.9C92.2,1.6,92.7,2,93,2.6
				c0.4,0.6,0.6,1.2,0.7,2h-1.3c0-0.4-0.2-0.8-0.4-1.2c-0.2-0.4-0.5-0.8-0.9-1.1c-0.4-0.3-0.8-0.6-1.4-0.8c-0.5-0.2-1.1-0.3-1.8-0.3
				c-0.9,0-1.7,0.2-2.4,0.5s-1.2,0.8-1.6,1.4S83.2,4.3,83,5c-0.2,0.7-0.3,1.5-0.3,2.2c0,0.8,0.1,1.5,0.3,2.2s0.5,1.4,0.9,2
				c0.4,0.6,1,1,1.6,1.4c0.7,0.4,1.5,0.5,2.4,0.5c0.8,0,1.5-0.1,2.1-0.4s1.1-0.6,1.5-1.1c0.4-0.5,0.7-1,0.9-1.6s0.3-1.3,0.3-2H88
				V7.1h5.9v7.1H93z"/>
		</g>
		<g>
			<path class="st0" d="M70.2,0.3l8.1,11.8h0V0.3h1.3v13.9h-1.5L70.1,2.4h0v11.8h-1.3V0.3H70.2z"/>
		</g>
		<g>
			<path class="st0" d="M66.5,0.3v13.9h-1.3V0.3H66.5z"/>
		</g>
		<g>
			<path class="st0" d="M56.7,0.3c2.1,0.1,3.7,0.6,4.8,1.8c1.1,1.1,1.6,2.9,1.6,5.2s-0.5,4-1.6,5.2c-1.1,1.1-2.7,1.7-4.8,1.8h-4.8
				V0.3H56.7z M56,13.1c1,0,1.9-0.1,2.6-0.3c0.7-0.2,1.3-0.6,1.8-1c0.5-0.5,0.8-1.1,1-1.8c0.2-0.7,0.3-1.6,0.3-2.7s-0.1-1.9-0.3-2.7
				c-0.2-0.7-0.6-1.3-1-1.8c-0.5-0.5-1.1-0.8-1.8-1C57.9,1.5,57,1.4,56,1.4h-2.8v11.7H56z"/>
		</g>
		<g>
			<path class="st0" d="M40.2,0.3l8.1,11.8h0V0.3h1.3v13.9h-1.5L40.1,2.4h0v11.8h-1.3V0.3H40.2z"/>
		</g>
		<g>
			<path class="st0" d="M32.2,0.3l5.5,13.9h-1.4l-1.7-4.3h-6.3l-1.7,4.3h-1.4l5.6-13.9H32.2z M34.1,8.8l-2.7-7.1l-2.8,7.1H34.1z"/>
		</g>
		<g>
			<path class="st0" d="M19.8,0.3c0.6,0,1.1,0.1,1.6,0.2s1,0.4,1.3,0.7c0.4,0.3,0.7,0.7,0.9,1.1c0.2,0.5,0.3,1,0.3,1.6
				c0,0.9-0.2,1.7-0.7,2.3c-0.5,0.7-1.1,1.1-2,1.2v0c0.5,0.1,0.8,0.2,1.1,0.4C22.8,8,23,8.3,23.2,8.5s0.3,0.6,0.4,0.9
				s0.1,0.7,0.2,1.2c0,0.2,0,0.5,0,0.9c0,0.3,0,0.7,0.1,1c0,0.3,0.1,0.7,0.2,1c0.1,0.3,0.2,0.5,0.3,0.7H23c-0.1-0.1-0.1-0.3-0.2-0.5
				c0-0.2-0.1-0.4-0.1-0.6c0-0.2,0-0.4,0-0.6c0-0.2,0-0.4,0-0.5c0-0.5-0.1-1-0.1-1.5s-0.2-0.9-0.4-1.3c-0.2-0.4-0.5-0.7-0.8-0.9
				C20.9,8.1,20.4,8,19.8,8h-5v6.2h-1.3V0.3H19.8z M19.7,6.9c0.4,0,0.8-0.1,1.2-0.2c0.4-0.1,0.7-0.3,1-0.5c0.3-0.2,0.5-0.5,0.7-0.8
				c0.2-0.3,0.2-0.7,0.2-1.1c0-0.9-0.2-1.5-0.7-2s-1.2-0.7-2.3-0.7h-5v5.5H19.7z"/>
		</g>
		<g>
			<path class="st0" d="M6.9,0.3c0.6,0,1.1,0.1,1.7,0.2C9.1,0.6,9.6,0.8,10,1c0.4,0.3,0.7,0.6,1,1.1c0.2,0.4,0.4,1,0.4,1.6
				c0,0.4-0.1,0.7-0.2,1.1c-0.1,0.3-0.3,0.7-0.5,0.9C10.5,6,10.2,6.2,9.9,6.4C9.6,6.6,9.3,6.7,9,6.8v0C9.8,7,10.6,7.3,11.1,8
				c0.5,0.6,0.8,1.4,0.8,2.3c0,0.2,0,0.5-0.1,0.8c0,0.3-0.1,0.6-0.2,0.9c-0.1,0.3-0.3,0.6-0.5,0.9c-0.2,0.3-0.5,0.5-0.9,0.8
				c-0.4,0.2-0.8,0.4-1.4,0.5c-0.5,0.1-1.2,0.2-1.9,0.2H1V0.3H6.9z M6.9,6.4c0.5,0,1-0.1,1.4-0.2c0.4-0.1,0.7-0.3,1-0.5
				S9.7,5.2,9.8,5C10,4.7,10,4.4,10,4c0-1.7-1-2.6-3.1-2.6H2.3v5H6.9z M6.9,13.1c0.5,0,1,0,1.4-0.1c0.4-0.1,0.8-0.2,1.2-0.5
				c0.3-0.2,0.6-0.5,0.8-0.9c0.2-0.4,0.3-0.8,0.3-1.4c0-0.9-0.3-1.6-0.9-2C9,7.8,8.1,7.5,6.9,7.5H2.3v5.6H6.9z"/>
		</g>
	</g>
	<g>
		<g>
			<g>
				<path class="st0" d="M117.3,19.3h2.6l6.4,10.3h0V19.3h2.3v13.9H126L119.7,23h-0.1v10.2h-2.3V19.3z"/>
			</g>
			<g>
				<path class="st0" d="M109,27.7l-5.2-8.5h2.8l3.7,6.2l3.6-6.2h2.7l-5.2,8.5v5.5H109V27.7z"/>
			</g>
			<g>
				<path class="st0" d="M92.9,19.3h10v2.1h-7.6V25h7v2h-7v4.1h7.7v2.1H92.9V19.3z"/>
			</g>
			<g>
				<path class="st0" d="M80.2,19.3h11.3v2.1H87v11.8h-2.4V21.4h-4.4V19.3z"/>
			</g>
			<g>
				<path class="st0" d="M68.7,19.3h6.1c1,0,1.8,0.1,2.4,0.4c0.6,0.3,1.1,0.6,1.4,1.1c0.3,0.4,0.6,0.9,0.7,1.4s0.2,1,0.2,1.4
					c0,0.4-0.1,0.9-0.2,1.4s-0.4,1-0.7,1.4c-0.3,0.4-0.8,0.8-1.4,1.1c-0.6,0.3-1.4,0.4-2.4,0.4h-3.7v5.3h-2.4V19.3z M71.2,25.9h3.6
					c0.3,0,0.6,0,0.8-0.1c0.3-0.1,0.5-0.2,0.8-0.4c0.2-0.2,0.4-0.4,0.6-0.7s0.2-0.7,0.2-1.1c0-0.5-0.1-0.8-0.2-1.1
					c-0.1-0.3-0.3-0.5-0.5-0.7c-0.2-0.2-0.5-0.3-0.8-0.4s-0.6-0.1-0.9-0.1h-3.6V25.9z"/>
			</g>
			<g>
				<path class="st0" d="M59.6,19.3h2.6l5.4,13.9H65l-1.3-3.7h-5.6l-1.3,3.7h-2.5L59.6,19.3z M58.8,27.7H63l-2.1-6h-0.1L58.8,27.7z"
					/>
			</g>
			<g>
				<path class="st0" d="M42,19.3h2.4v6.3l6.2-6.3h3L48,24.8l5.9,8.4h-3l-4.6-6.6l-2,2v4.7H42V19.3z"/>
			</g>
		</g>
		<g>
			<path class="st0" d="M23.7,19.3h2.6l6.4,10.3h0V19.3H35v13.9h-2.6L26.1,23h-0.1v10.2h-2.3V19.3z"/>
		</g>
		<g>
			<path class="st0" d="M14.8,19.3h2.6l5.4,13.9h-2.6l-1.3-3.7h-5.6l-1.3,3.7H9.4L14.8,19.3z M13.9,27.7h4.3l-2.1-6H16L13.9,27.7z"
				/>
		</g>
		<g>
			<path class="st0" d="M8.7,28.7c0,0.6-0.1,1.2-0.2,1.8C8.5,31.1,8.3,31.6,8,32c-0.3,0.5-0.8,0.8-1.4,1.1s-1.4,0.4-2.4,0.4
				c-0.7,0-1.4-0.1-1.9-0.3C1.8,33,1.3,32.7,1,32.3c-0.3-0.4-0.6-0.9-0.7-1.4C0.1,30.3,0,29.7,0,29.1v-0.7h2.4v0.7
				c0,0.8,0.1,1.4,0.4,1.8c0.3,0.4,0.8,0.7,1.5,0.7c0.4,0,0.7-0.1,1-0.2s0.5-0.3,0.6-0.5c0.1-0.2,0.2-0.5,0.3-0.8
				c0.1-0.3,0.1-0.7,0.1-1.2v-9.6h2.4V28.7z"/>
		</g>
	</g>
</g>
</svg>
